HIERARCHY
ROOT Hips
{
  OFFSET -69.4423 88.0299 51.6846
  CHANNELS 6 Xposition Yposition Zposition Zrotation Xrotation Yrotation
  JOINT Spine
  {
    OFFSET 12.0259 -0.162853 1.93176e-005
    CHANNELS 3 Zrotation Xrotation Yrotation
    JOINT Spine1
    {
      OFFSET 15.3169 -0.0121909 0
      CHANNELS 3 Zrotation Xrotation Yrotation
      JOINT Spine2
      {
        OFFSET 15.3176 -0.0121922 0
        CHANNELS 3 Zrotation Xrotation Yrotation
        JOINT Neck
        {
          OFFSET 19.9142 1.56236 0
          CHANNELS 3 Zrotation Xrotation Yrotation
          JOINT Head
          {
            OFFSET 6.92646 0 0
            CHANNELS 3 Zrotation Xrotation Yrotation
            End Site
            {
              OFFSET 20.7666 0 0
            }
          }
          JOINT LeftShoulder
          {
            OFFSET -4.94072 -1.14703 8.14416
            CHANNELS 3 Zrotation Xrotation Yrotation
            JOINT LeftArm
            {
              OFFSET 14.108 0 -2.74767e-005
              CHANNELS 3 Zrotation Xrotation Yrotation
              JOINT LeftForeArm
              {
                OFFSET 28.5802 -0.0783412 -0.0284884
                CHANNELS 3 Zrotation Xrotation Yrotation
                JOINT LeftHand
                {
                  OFFSET 27.092 0 0
                  CHANNELS 3 Zrotation Xrotation Yrotation
                  End Site
                  {
                    OFFSET 9.55928 -0.186424 0.145352
                  }
                }
              }
            }
          }
          JOINT RightShoulder
          {
            OFFSET -7.15748 -1.33027 -6.24935
            CHANNELS 3 Zrotation Xrotation Yrotation
            JOINT RightArm
            {
              OFFSET 14.108 0 1.82997e-005
              CHANNELS 3 Zrotation Xrotation Yrotation
              JOINT RightForeArm
              {
                OFFSET 28.5802 -0.0707221 2.30684e-005
                CHANNELS 3 Zrotation Xrotation Yrotation
                JOINT RightHand
                {
                  OFFSET 27.092 0 -1.30073e-005
                  CHANNELS 3 Zrotation Xrotation Yrotation
                  End Site
                  {
                    OFFSET 9.55929 -0.186417 -0.145354
                  }
                }
              }
            }
          }
        }
      }
    }
  }
  JOINT LeftUpLeg
  {
    OFFSET 0.00499725 -0.534999 8.837
    CHANNELS 3 Zrotation Xrotation Yrotation
    JOINT LeftLeg
    {
      OFFSET 39.9035 -0.00124594 0.000252775
      CHANNELS 3 Zrotation Xrotation Yrotation
      JOINT LeftFoot
      {
        OFFSET 39.6689 0 0
        CHANNELS 3 Zrotation Xrotation Yrotation
        JOINT LeftToe
        {
          OFFSET 10.1624 13.6296 0
          CHANNELS 3 Zrotation Xrotation Yrotation
          End Site
          {
            OFFSET 8.38147 0 0
          }
        }
      }
    }
  }
  JOINT RightUpLeg
  {
    OFFSET 0.00499725 -0.535 -8.837
    CHANNELS 3 Zrotation Xrotation Yrotation
    JOINT RightLeg
    {
      OFFSET 39.9036 -0.000268477 0.000106433
      CHANNELS 3 Zrotation Xrotation Yrotation
      JOINT RightFoot
      {
        OFFSET 39.6689 1.17892e-005 0
        CHANNELS 3 Zrotation Xrotation Yrotation
        JOINT RightToe
        {
          OFFSET 10.1624 13.6296 0
          CHANNELS 3 Zrotation Xrotation Yrotation
          End Site
          {
            OFFSET 8.38147 0 0
          }
        }
      }
    }
  }
}
MOTION
Frames:	18
Frame Time:	0.0333333
87.9432 88.443 -50.1945 100.28 79.5481 -10.3136 0.351487 -0.29533 0.283064 0.704467 -0.588466 0.568115 0.704457 -0.588467 0.568099 -17.8279 -5.82855 -15.7543 39.3514 -5.9262 21.5171 -165.627 -9.3009 -96.7582 -26.3203 1.61899 84.6436 -17.8699 1.5695 -12.2053 8.29615 -80.6286 10.6575 -165.676 -11.7461 70.9872 -15.5896 -1.05533 -84.2657 -21.746 -2.4708 13.6126 2.29395 79.5067 -2.10448 -6.66581 1.84853 178.758 -23.2193 1.01761 -1.16793 4.75318 1.08075 0.587721 90 -3.18055e-015 -9.54166e-015 -12.265 -2.89368 178.742 -35.1607 -0.477794 0.265949 6.30468 9.98951 -0.25399 90 -4.77083e-015 3.18055e-015 
87.9492 88.4581 -50.1925 100.29 79.4918 -10.3689 0.368673 -0.262512 0.295545 0.738717 -0.522666 0.592945 0.738713 -0.522656 0.59293 -17.9772 -5.76037 -15.7217 39.4344 -5.76258 21.5421 -165.457 -9.26643 -96.7114 -26.6046 1.59516 84.5966 -17.6832 1.54015 -12.1054 8.19859 -80.5219 10.5272 -165.512 -11.7173 71.0224 -15.61 -1.07401 -84.1519 -21.8528 -2.49338 13.6715 2.30937 79.4811 -2.10567 -6.67706 1.9072 178.81 -23.2268 1.01657 -1.16783 4.75311 1.11206 0.589772 90 9.14409e-015 3.18055e-015 -12.2122 -2.66644 178.837 -35.0875 -0.472475 0.266344 5.95072 10.259 -0.157616 90 -1.19271e-014 -0 
87.9579 88.4675 -50.2272 100.986 79.4901 -11.1881 0.344831 -0.248876 0.327598 0.68429 -0.495328 0.656841 0.684286 -0.495331 0.656834 -17.8684 -5.64812 -15.6218 39.4759 -5.52225 21.4091 -165.528 -9.11031 -96.663 -26.4906 1.68266 84.74 -17.6281 1.53564 -12.0777 7.99859 -80.321 10.2968 -165.58 -11.5537 71.0701 -15.5764 -1.09004 -84.0952 -21.8976 -2.50389 13.6986 2.3585 79.7595 -2.15272 -6.88713 1.92894 178.956 -23.3691 1.01444 -1.16658 4.77658 1.2243 0.598983 90 -7.55382e-015 -4.77083e-015 -12.3326 -2.78822 178.958 -34.9978 -0.47146 0.260097 5.94448 10.1722 -0.157492 90 -1.27222e-014 -6.36111e-015 
87.966 88.4755 -50.2254 100.889 79.5394 -11.1023 0.353313 -0.212619 0.327451 0.707907 -0.422698 0.66599 0.707892 -0.422711 0.665975 -17.8477 -5.61932 -15.5234 39.8462 -5.50393 21.2283 -165.53 -9.04335 -96.5865 -26.7948 1.77107 84.8003 -17.7251 1.54472 -12.128 8.06768 -80.429 10.3986 -165.572 -11.4837 71.1496 -14.9721 -0.941302 -84.0779 -21.7873 -2.48165 13.637 2.25949 79.3643 -2.06086 -6.8542 1.87822 178.95 -23.3392 1.0123 -1.16602 4.79202 1.2135 0.599927 90 -1.19271e-015 -7.95139e-015 -12.3143 -2.79996 178.945 -35.0648 -0.473484 0.262138 5.9004 10.2158 -0.152065 90 -9.54166e-015 1.27222e-014 
87.9925 88.4765 -50.2275 101.416 79.7073 -11.5151 0.335583 -0.221116 0.325689 0.672445 -0.439889 0.652842 0.67244 -0.439894 0.652836 -17.8606 -5.39169 -15.4424 40.0115 -5.00478 21.105 -165.457 -8.81114 -96.5623 -27.235 1.8532 84.8331 -17.6105 1.52419 -12.0638 8.49209 -80.7943 10.7705 -165.502 -11.2511 71.1652 -14.9755 -1.02835 -83.9979 -21.7442 -2.47435 13.6183 2.26298 79.4368 -2.07067 -6.86393 1.97667 178.857 -23.2025 1.01029 -1.16409 4.74152 1.39213 0.604823 90 6.36111e-015 -4.77083e-015 -12.3929 -2.92846 178.781 -35.1296 -0.47728 0.266879 5.93451 10.2287 -0.15629 90 -1.43125e-014 -9.54166e-015 
87.9786 88.4616 -50.2555 101.8 79.9482 -11.9871 0.38413 -0.232139 0.351132 0.769751 -0.461485 0.703983 0.769748 -0.461482 0.703971 -18.5026 -5.20592 -15.1504 40.8531 -5.01292 20.4393 -164.734 -8.6687 -96.2336 -27.2545 1.71957 84.805 -17.8103 1.55337 -12.1746 8.49594 -80.9879 10.8194 -164.771 -11.1124 71.4961 -14.9571 -0.821284 -83.8555 -21.5856 -2.4405 13.5273 2.26821 79.3923 -2.07852 -6.95975 2.18945 179.064 -23.2517 1.00858 -1.1584 4.76933 1.94196 0.635375 90 -9.14409e-015 7.95139e-015 -12.4049 -3.1893 178.853 -35.0727 -0.481582 0.268735 6.20743 10.1363 -0.226118 90 -7.95139e-016 1.27222e-014 
87.9436 88.5343 -50.2926 102.365 80.2719 -12.5757 0.414957 -0.245146 0.337544 0.831409 -0.48948 0.677029 0.831398 -0.48948 0.677026 -18.5347 -5.00608 -14.9367 41.0504 -4.59631 20.2408 -164.622 -8.42048 -96.086 -27.507 1.7081 84.6309 -17.969 1.57373 -12.2571 8.60116 -81.1227 10.9252 -164.662 -10.8708 71.6608 -15.2218 -0.895975 -83.9891 -21.7246 -2.47102 13.6073 2.35507 79.508 -2.16912 -7.09985 2.76599 179.336 -23.307 1.00737 -1.13942 4.85589 3.22388 0.700388 90 7.55382e-015 -1.59028e-015 -12.4673 -3.2588 178.835 -35.1941 -0.485124 0.263786 5.98773 10.0634 -0.180197 90 -5.56597e-015 -6.36111e-015 
87.8495 88.4626 -50.327 102.271 80.6789 -12.5401 0.458871 -0.237359 0.328898 0.919003 -0.469128 0.646555 0.919 -0.469124 0.646544 -18.3752 -4.95438 -14.838 40.9333 -4.40332 20.249 -164.751 -8.30808 -96.037 -27.6149 1.70933 84.4466 -18.0192 1.58032 -12.2799 8.1676 -80.8955 10.4842 -164.793 -10.762 71.718 -15.1281 -1.08622 -84.1941 -21.8973 -2.50995 13.7055 2.45552 79.6978 -2.27706 -7.02166 3.45634 179.738 -23.4466 1.0075 -1.11485 5.20792 4.82067 0.772049 90 5.96354e-015 3.18055e-015 -12.4249 -3.41701 178.827 -35.3714 -0.486639 0.25916 6.62876 9.80525 -0.341097 90 -7.95139e-016 3.18055e-015 
87.7555 88.3754 -50.3862 102.623 81.1941 -12.6263 0.480876 -0.2276 0.318341 0.963035 -0.452034 0.638753 0.963033 -0.452051 0.638741 -18.4077 -4.90624 -14.9218 41.2002 -4.39363 20.0794 -164.718 -8.26793 -96.1446 -27.7542 1.49982 84.65 -18.1379 1.59416 -12.3553 7.45589 -80.1778 9.73039 -164.767 -10.7406 71.6041 -14.8356 -1.36472 -84.0387 -22.0286 -2.54203 13.7895 2.53891 79.9607 -2.36816 -7.16659 3.35778 179.708 -23.5858 1.00574 -1.08344 5.3071 6.32846 0.816008 90 -1.15295e-014 7.95139e-015 -12.7175 -3.97612 178.121 -36.2578 -0.484862 0.239126 7.35866 8.23868 -0.568778 90 -3.18055e-015 -6.36111e-015 
87.5285 88.3047 -50.4308 101.638 81.5783 -11.4373 0.562692 -0.174374 0.204595 1.12602 -0.34625 0.411053 1.126 -0.34625 0.411042 -18.4389 -4.91856 -14.9067 41.208 -4.12793 20.4907 -164.686 -8.29019 -96.1381 -27.9277 1.62064 84.2546 -18.4182 1.63016 -12.4985 6.72691 -79.5093 8.94171 -164.747 -10.7865 71.6439 -14.4843 -1.46597 -84.523 -22.3895 -2.61996 13.9885 2.58756 80.1537 -2.42132 -7.14576 4.35977 179.965 -23.7229 1.00228 -1.03449 5.63322 7.90804 0.840113 90 9.14409e-015 3.18055e-015 -12.9031 -3.13093 177.543 -37.2965 -0.475467 0.209177 8.55331 5.433 -0.897036 90 1.59028e-015 -3.18055e-015 
87.2983 88.3449 -50.4768 101.252 82.296 -10.7934 0.631699 -0.205217 0.108823 1.2638 -0.408732 0.220075 1.2638 -0.40874 0.220057 -18.732 -4.8773 -15.3029 41.9117 -3.70122 21.147 -164.439 -8.44168 -96.4842 -28.9135 1.85063 83.7845 -18.4905 1.63185 -12.5138 8.73922 -81.4243 11.0105 -164.535 -10.9568 71.3119 -14.0176 -1.58045 -84.8952 -22.6211 -2.67179 14.1144 2.56447 80.183 -2.39569 -6.84955 4.23457 179.899 -23.3424 1.00088 -1.02747 5.47553 8.57608 0.85539 90 4.77083e-015 -3.18055e-015 -13.0171 -1.92168 176.555 -38.5138 -0.445661 0.162792 10.1457 1.51976 -1.19638 90 -1.19271e-014 -1.43125e-014 
86.9635 88.3965 -50.4143 100.665 83.278 -10.2222 0.64071 -0.301283 0.0623761 1.28179 -0.601397 0.128269 1.28179 -0.601398 0.128266 -18.2317 -4.88494 -15.1936 41.8087 -3.63573 21.0588 -164.903 -8.2884 -96.4675 -28.1483 1.93135 83.2676 -18.6835 1.66297 -12.5995 7.169 -81.0621 9.67254 -165.013 -10.8195 71.3543 -13.2384 -1.81641 -85.3744 -22.7161 -2.68694 14.152 2.434 80.1649 -2.24171 -6.44167 4.06025 -179.805 -22.8577 1.00033 -1.02888 5.18874 9.60271 0.903499 90 -5.1684e-015 1.59028e-015 -12.657 -0.723661 175.6 -39.3196 -0.422263 0.142674 10.65 0.0113621 -1.24728 90 1.19271e-014 -7.95139e-016 
86.5294 88.5731 -50.3913 102.163 84.614 -11.9477 0.679125 -0.409714 0.0552309 1.35871 -0.818218 0.115485 1.3587 -0.818225 0.11547 -18.2854 -4.99055 -15.1943 42.1869 -3.80056 21.1619 -164.833 -8.37595 -96.376 -27.1061 1.46774 82.7131 -17.8733 1.55108 -12.1642 8.11722 -80.3888 10.2606 -164.987 -10.9373 71.3828 -12.0652 -1.76699 -85.7887 -22.7483 -2.70013 14.173 2.49672 80.0462 -2.31679 -6.07181 3.40401 -179.273 -21.954 0.999767 -1.06127 4.42112 10.4448 1.02514 90 -7.95139e-016 4.77083e-015 -12.1493 0.11453 174.542 -39.6784 -0.414667 0.156643 9.91722 0.947045 -1.17033 90 3.18055e-015 8.74653e-015 
85.9971 88.7797 -50.3171 104.56 85.8369 -14.748 0.693353 -0.491024 0.109219 1.38774 -0.980237 0.224543 1.38773 -0.980237 0.224534 -18.2082 -5.05148 -15.1898 42.4197 -3.92149 21.1469 -164.903 -8.39207 -96.3807 -26.9994 1.4135 82.1969 -18.0119 1.57095 -12.2278 10.6706 -82.3894 12.8138 -165.077 -10.9691 71.3991 -10.9027 -1.92329 -86.0665 -22.8068 -2.71508 14.194 2.58824 80.1038 -2.38539 -5.5842 2.24281 -178.593 -20.9946 0.998344 -1.12126 3.72524 10.2439 1.1218 90 1.94809e-014 9.54166e-015 -11.4957 0.681411 173.365 -39.5523 -0.407924 0.183243 8.48251 2.22804 -0.983366 90 -2.78299e-014 -1.74931e-014 
85.3653 88.9494 -50.2635 108.995 86.9255 -19.581 0.666689 -0.543279 0.160984 1.33504 -1.08415 0.328454 1.33503 -1.08416 0.328444 -17.9291 -5.14266 -15.0188 42.2588 -4.16663 20.9565 -165.16 -8.35964 -96.2348 -26.2232 1.45721 81.9177 -17.8179 1.54401 -12.1119 9.60938 -81.5599 11.6173 -165.349 -10.9213 71.5441 -9.90482 -2.27061 -86.2358 -22.8865 -2.73467 14.2324 2.60711 80.1084 -2.40781 -5.33104 1.61925 -177.754 -20.2553 0.994854 -1.15526 3.00789 10.92 1.27396 90 -1.51076e-014 -1.43125e-014 -10.8561 1.30227 172.049 -39.1988 -0.395447 0.203079 7.23744 2.57959 -0.818958 90 -2.66371e-014 7.95139e-015 
84.6563 89.0972 -50.2747 116.067 87.6006 -26.9741 0.620592 -0.505292 0.194148 1.24297 -1.00797 0.393926 1.24296 -1.00799 0.393907 -17.8052 -5.24352 -15.1464 42.3745 -4.00639 21.506 -165.348 -8.49465 -96.3893 -26.5226 2.09413 81.7401 -18.2207 1.59618 -12.3019 9.66865 -81.3181 11.6346 -165.52 -11.0372 71.4421 -8.7264 -2.47444 -86.3284 -22.7798 -2.71204 14.166 2.62266 80.056 -2.40706 -5.05162 1.06465 -176.96 -19.4252 0.987517 -1.19642 2.42212 11.1513 1.39341 90 -4.77083e-015 -0 -10.457 1.73324 170.448 -38.4382 -0.376236 0.226324 5.85815 2.20842 -0.687318 90 -2.127e-014 -3.57812e-015 
83.8852 89.1909 -50.2495 125.617 88.1751 -36.5163 0.621447 -0.488164 0.286317 1.25511 -0.972679 0.578149 1.25511 -0.972681 0.578139 -17.8839 -5.2042 -15.833 42.5898 -3.47171 22.4014 -165.368 -8.68719 -97.0807 -26.5795 1.96193 81.9502 -18.6603 1.6603 -12.5297 7.22097 -81.1447 9.84396 -165.543 -11.2264 70.759 -7.82619 -2.55411 -85.6167 -22.6494 -2.69053 14.0943 2.6787 79.9945 -2.45177 -4.63631 0.484651 -176.454 -18.525 0.979386 -1.23816 1.99388 11.2401 1.47091 90 6.75868e-015 1.59028e-015 -9.91633 2.16672 168.544 -37.4635 -0.348666 0.257103 3.70733 2.55314 -0.400459 90 8.74653e-015 7.95139e-016 
82.9514 89.3331 -50.2234 133.112 88.4133 -44.3516 0.625768 -0.371898 0.344211 1.25385 -0.739522 0.692625 1.25384 -0.739529 0.692621 -18.1864 -5.27851 -15.8384 42.9024 -3.74231 22.333 -165.086 -8.82297 -97.0189 -26.6329 2.28077 81.6371 -18.4298 1.62359 -12.3888 9.63402 -82.277 11.9314 -165.26 -11.3544 70.8137 -6.73774 -2.35517 -85.494 -22.4417 -2.6542 13.9853 2.91605 80.173 -2.69221 -4.26082 -0.081173 -175.527 -17.8061 0.966313 -1.27618 1.63476 11.0541 1.53477 90 -1.74931e-014 -3.18055e-015 -9.45686 2.22454 167.091 -35.8396 -0.320364 0.292723 1.55517 3.11548 -0.0569625 90 -8.54774e-015 -1.98785e-015 
